<svg width="34" height="36" viewBox="0 0 34 36" fill="none" xmlns="http://www.w3.org/2000/svg">
<path d="M29.8228 28.8429C15.361 35.7254 6.38594 29.967 0.640686 26.4694C0.285173 26.249 -0.319077 26.521 0.205192 27.1232C2.11922 29.444 8.3919 35.0378 16.5796 35.0378C24.7729 35.0378 29.6471 30.5671 30.2569 29.7873C30.8625 29.014 30.4347 28.5874 29.8226 28.8429H29.8228ZM33.8843 26.5999C33.496 26.0941 31.5228 25.9999 30.2811 26.1524C29.0374 26.3006 27.1706 27.0606 27.3329 27.517C27.4162 27.688 27.5862 27.6113 28.4406 27.5345C29.2973 27.449 31.6972 27.1461 32.1973 27.7998C32.6997 28.4581 31.4319 31.5938 31.2003 32.0995C30.9766 32.6053 31.2858 32.7357 31.706 32.3988C32.1205 32.0622 32.8708 31.1902 33.3743 29.9563C33.8744 28.7156 34.1795 26.9849 33.8843 26.5999Z" fill="white"/>
<path fill-rule="evenodd" clip-rule="evenodd" d="M20.0988 14.7994C20.0988 16.6053 20.1444 18.1113 19.2317 19.715C18.4949 21.019 17.3279 21.8209 16.0241 21.8209C14.2442 21.8209 13.2076 20.4648 13.2076 18.4634C13.2076 14.5124 16.7476 13.7954 20.0988 13.7954V14.7994ZM24.7732 26.0978C24.4668 26.3715 24.0235 26.3912 23.678 26.2085C22.1394 24.9308 21.8655 24.3375 21.018 23.1183C18.4754 25.7131 16.676 26.4889 13.3772 26.4889C9.47846 26.4889 6.44031 24.0831 6.44031 19.2652C6.44031 15.5035 8.48104 12.9413 11.382 11.6896C13.8987 10.5812 17.4127 10.3856 20.0988 10.0793V9.47945C20.0988 8.37759 20.1834 7.07372 19.5381 6.12193C18.9708 5.26784 17.8886 4.91576 16.9367 4.91576C15.17 4.91576 13.5922 5.82193 13.2076 7.69955C13.1292 8.1169 12.8229 8.52766 12.4057 8.54717L7.90716 8.06482C7.52911 7.97989 7.11189 7.67357 7.2162 7.09323C8.25278 1.64303 13.1749 0 17.582 0C19.8378 0 22.7846 0.599852 24.5645 2.30802C26.8203 4.41376 26.6051 7.22365 26.6051 10.2813V17.505C26.6051 19.676 27.5048 20.6278 28.3523 21.8014C28.6522 22.2186 28.7174 22.7207 28.3392 23.0335C27.3939 23.8223 25.7118 25.2893 24.7862 26.1108L24.7731 26.0978" fill="white"/>
<path d="M29.8228 28.8429C15.361 35.7254 6.38594 29.967 0.640686 26.4694C0.285173 26.249 -0.319077 26.521 0.205192 27.1232C2.11922 29.444 8.3919 35.0378 16.5796 35.0378C24.7729 35.0378 29.6471 30.5671 30.2569 29.7873C30.8625 29.014 30.4347 28.5874 29.8226 28.8429H29.8228ZM33.8843 26.5999C33.496 26.0941 31.5228 25.9999 30.2811 26.1524C29.0374 26.3006 27.1706 27.0606 27.3329 27.517C27.4162 27.688 27.5862 27.6113 28.4406 27.5345C29.2973 27.449 31.6972 27.1461 32.1973 27.7998C32.6997 28.4581 31.4319 31.5938 31.2003 32.0995C30.9766 32.6053 31.2858 32.7357 31.706 32.3988C32.1205 32.0622 32.8708 31.1902 33.3743 29.9563C33.8744 28.7156 34.1795 26.9849 33.8843 26.5999Z" fill="white"/>
<path fill-rule="evenodd" clip-rule="evenodd" d="M20.0988 14.7994C20.0988 16.6053 20.1444 18.1113 19.2317 19.715C18.4949 21.019 17.3279 21.8209 16.0241 21.8209C14.2442 21.8209 13.2076 20.4648 13.2076 18.4634C13.2076 14.5124 16.7476 13.7954 20.0988 13.7954V14.7994ZM24.7732 26.0978C24.4668 26.3715 24.0235 26.3912 23.678 26.2085C22.1394 24.9308 21.8655 24.3375 21.018 23.1183C18.4754 25.7131 16.676 26.4889 13.3772 26.4889C9.47846 26.4889 6.44031 24.0831 6.44031 19.2652C6.44031 15.5035 8.48104 12.9413 11.382 11.6896C13.8987 10.5812 17.4127 10.3856 20.0988 10.0793V9.47945C20.0988 8.37759 20.1834 7.07372 19.5381 6.12193C18.9708 5.26784 17.8886 4.91576 16.9367 4.91576C15.17 4.91576 13.5922 5.82193 13.2076 7.69955C13.1292 8.1169 12.8229 8.52766 12.4057 8.54717L7.90716 8.06482C7.52911 7.97989 7.11189 7.67357 7.2162 7.09323C8.25278 1.64303 13.1749 0 17.582 0C19.8378 0 22.7846 0.599852 24.5645 2.30802C26.8203 4.41376 26.6051 7.22365 26.6051 10.2813V17.505C26.6051 19.676 27.5048 20.6278 28.3523 21.8014C28.6522 22.2186 28.7174 22.7207 28.3392 23.0335C27.3939 23.8223 25.7118 25.2893 24.7862 26.1108L24.7731 26.0978" fill="white"/>
</svg>
