<svg width="36" height="36" viewBox="0 0 36 36" fill="none" xmlns="http://www.w3.org/2000/svg">
<rect width="36" height="36" rx="8" fill="white"/>
<path d="M14.1949 11.907C14.5224 11.4624 15.1484 11.3674 15.5931 11.6949C15.9385 11.9493 16.2668 12.2037 16.5528 12.4269C17.1236 12.8724 17.8882 13.4857 18.6556 14.152C19.4181 14.8141 20.2064 15.5481 20.8119 16.2334C21.1136 16.5748 21.3911 16.9278 21.5986 17.272C21.7895 17.5887 22 18.0239 22 18.5C22 18.9761 21.7895 19.4114 21.5986 19.728C21.3911 20.0722 21.1136 20.4251 20.8119 20.7666C20.2064 21.4519 19.4181 22.1859 18.6556 22.848C17.8882 23.5143 17.1236 24.1276 16.5528 24.5732C16.2668 24.7963 15.9385 25.0507 15.5931 25.3051C15.1484 25.6326 14.5224 25.5376 14.1949 25.0929C14.0632 24.9142 13.9998 24.7062 14 24.5L14 18.5V12.5001C13.9998 12.2939 14.0632 12.0858 14.1949 11.907Z" fill="black"/>
</svg>
