<svg width="32" height="32" viewBox="0 0 32 32" fill="none" xmlns="http://www.w3.org/2000/svg">
<path d="M31.9814 24.1727C31.6961 26.3408 30.6313 28.3309 28.986 29.7713C27.3406 31.2117 25.2272 32.0039 23.0404 32C10.3362 32 1.44781e-05 21.6639 1.44781e-05 8.95976C-0.00390556 6.77301 0.788327 4.6596 2.22875 3.01426C3.66916 1.36892 5.65926 0.30417 7.82735 0.0188764C8.3756 -0.0480668 8.93081 0.0640959 9.41008 0.338621C9.88934 0.613146 10.267 1.03531 10.4866 1.54209L13.8659 9.08616V9.10536C14.034 9.49329 14.1034 9.91683 14.068 10.3381C14.0325 10.7594 13.8933 11.1654 13.6627 11.5198C13.6338 11.563 13.6034 11.603 13.5714 11.643L10.2402 15.5918C11.4386 18.0271 13.9859 20.5519 16.4531 21.7535L20.3476 18.4399C20.3858 18.4077 20.4259 18.3778 20.4676 18.3503C20.8216 18.1141 21.229 17.9699 21.6528 17.9308C22.0766 17.8917 22.5035 17.9589 22.8948 18.1263L22.9156 18.1359L30.4533 21.5135C30.961 21.7323 31.3842 22.1096 31.6596 22.589C31.9351 23.0683 32.0479 23.6239 31.9814 24.1727Z" fill="#1D1D1F"/>
</svg>
