<svg width="34" height="36" viewBox="0 0 34 36" fill="none" xmlns="http://www.w3.org/2000/svg">
<path d="M10.9055 23.9202C9.89106 24.7134 9.07069 25.7273 8.50661 26.8849C7.94254 28.0425 7.64958 29.3134 7.64997 30.6011V33.1511H2.54999C1.139 33.1511 0 32.0121 0 30.6011V28.9011C0 25.6117 2.66049 22.9512 5.94998 22.9512H7.64997C8.85697 22.9512 9.97046 23.3082 10.9055 23.9202Z" fill="white"/>
<path d="M27.2 22.9508C29.3125 22.9508 31.025 21.2382 31.025 19.1258C31.025 17.0133 29.3125 15.3008 27.2 15.3008C25.0875 15.3008 23.375 17.0133 23.375 19.1258C23.375 21.2382 25.0875 22.9508 27.2 22.9508Z" fill="white"/>
<path d="M6.80008 22.9508C8.91256 22.9508 10.6251 21.2382 10.6251 19.1258C10.6251 17.0133 8.91256 15.3008 6.80008 15.3008C4.6876 15.3008 2.9751 17.0133 2.9751 19.1258C2.9751 21.2382 4.6876 22.9508 6.80008 22.9508Z" fill="white"/>
<path d="M33.9999 28.9011V30.6011C33.9999 32.0121 32.8609 33.1511 31.45 33.1511H26.35V30.6011C26.35 27.8897 25.075 25.4757 23.0945 23.9202C24.0295 23.3082 25.143 22.9512 26.35 22.9512H28.05C31.3395 22.9512 33.9999 25.6117 33.9999 28.9011Z" fill="white"/>
<path d="M16.9999 23.8011C19.5819 23.8011 21.6749 21.7081 21.6749 19.1262C21.6749 16.5442 19.5819 14.4512 16.9999 14.4512C14.418 14.4512 12.325 16.5442 12.325 19.1262C12.325 21.7081 14.418 23.8011 16.9999 23.8011Z" fill="white"/>
<path d="M17.85 23.8009H16.15C12.4007 23.8009 9.35006 26.8516 9.35006 30.6009V33.1509C9.35006 34.5568 10.4942 35.7009 11.9001 35.7009H22.1C23.5059 35.7009 24.65 34.5568 24.65 33.1509V30.6009C24.65 26.8516 21.5994 23.8009 17.85 23.8009ZM29.325 11.6324L27.2739 12.3617C27.1394 12.4095 26.9952 12.4239 26.8539 12.4035C26.7125 12.383 26.5783 12.3285 26.4628 12.2445C26.3473 12.1606 26.2539 12.0497 26.1909 11.9216C26.1279 11.7935 26.097 11.6519 26.101 11.5091L26.1604 9.33315L24.8328 7.60766C24.7458 7.49443 24.6876 7.36173 24.6634 7.22101C24.6392 7.0803 24.6495 6.9358 24.6936 6.79999C24.7377 6.66418 24.8142 6.54115 24.9165 6.44151C25.0188 6.34188 25.1438 6.26864 25.2807 6.22811L27.3691 5.61272L28.5999 3.81667C28.6807 3.69886 28.7889 3.6025 28.9152 3.53591C29.0415 3.46933 29.1822 3.43453 29.325 3.43453C29.4678 3.43453 29.6084 3.46933 29.7348 3.53591C29.8611 3.6025 29.9693 3.69886 30.05 3.81667L31.2808 5.61272L33.3693 6.22811C33.9617 6.40236 34.1938 7.11806 33.8172 7.60766L32.4895 9.33315L32.549 11.5091C32.5528 11.6518 32.5218 11.7933 32.4587 11.9213C32.3956 12.0493 32.3023 12.1601 32.1868 12.244C32.0714 12.3279 31.9372 12.3825 31.796 12.403C31.6547 12.4235 31.5106 12.4093 31.376 12.3617L29.325 11.6324ZM4.67508 11.6324L2.62404 12.3617C2.48949 12.4095 2.3453 12.4239 2.20396 12.4035C2.06263 12.383 1.92839 12.3285 1.81287 12.2445C1.69736 12.1606 1.60404 12.0497 1.54099 11.9216C1.47795 11.7935 1.44707 11.6519 1.45104 11.5091L1.51054 9.33315L0.18285 7.60766C0.0958583 7.49443 0.037735 7.36173 0.0134984 7.22101C-0.0107381 7.0803 -0.000359455 6.9358 0.0437382 6.79999C0.0878359 6.66418 0.164327 6.54115 0.266607 6.44151C0.368887 6.34188 0.493882 6.26864 0.630798 6.22811L2.71924 5.61272L3.95004 3.81667C4.03075 3.69886 4.13895 3.6025 4.26529 3.53591C4.39162 3.46933 4.53228 3.43453 4.67508 3.43453C4.81789 3.43453 4.95854 3.46933 5.08488 3.53591C5.21121 3.6025 5.31941 3.69886 5.40013 3.81667L6.63092 5.61272L8.71937 6.22811C9.31182 6.40236 9.54386 7.11806 9.16731 7.60766L7.83962 9.33315L7.89912 11.5091C7.90289 11.6518 7.87188 11.7933 7.80878 11.9213C7.74567 12.0493 7.65237 12.1601 7.53691 12.244C7.42145 12.3279 7.2873 12.3825 7.14605 12.403C7.0048 12.4235 6.86068 12.4093 6.72612 12.3617L4.67508 11.6324ZM17 9.7199L14.5682 10.5843C14.4087 10.641 14.2378 10.658 14.0702 10.6338C13.9027 10.6096 13.7436 10.5449 13.6066 10.4454C13.4697 10.3459 13.3591 10.2145 13.2843 10.0626C13.2096 9.91072 13.1729 9.74291 13.1776 9.5737L13.2481 6.99396L11.674 4.94802C11.5708 4.81377 11.502 4.65644 11.4732 4.48962C11.4445 4.3228 11.4569 4.15149 11.5092 3.9905C11.5615 3.82951 11.6522 3.68366 11.7734 3.56556C11.8947 3.44746 12.0429 3.36065 12.2052 3.31262L14.6812 2.58248L16.1407 0.453236C16.2364 0.313514 16.3647 0.19922 16.5145 0.120246C16.6643 0.0412729 16.8311 0 17.0005 0C17.1698 0 17.3366 0.0412729 17.4864 0.120246C17.6362 0.19922 17.7645 0.313514 17.8602 0.453236L19.3197 2.58248L21.7957 3.31262C21.958 3.36065 22.1062 3.44746 22.2275 3.56556C22.3488 3.68366 22.4395 3.82951 22.4918 3.9905C22.5441 4.15149 22.5564 4.3228 22.5277 4.48962C22.499 4.65644 22.4301 4.81377 22.327 4.94802L20.7528 6.99396L20.8233 9.5737C20.828 9.74291 20.7913 9.91072 20.7166 10.0626C20.6418 10.2145 20.5312 10.3459 20.3943 10.4454C20.2573 10.5449 20.0982 10.6096 19.9307 10.6338C19.7631 10.658 19.5922 10.641 19.4327 10.5843L17 9.7199Z" fill="white"/>
</svg>
