<svg width="48" height="48" viewBox="0 0 48 48" fill="none" xmlns="http://www.w3.org/2000/svg">
<path fill-rule="evenodd" clip-rule="evenodd" d="M2 16C2 14.8954 2.89544 14 4 14H16C17.1046 14 18 14.8954 18 16C18 17.1046 17.1046 18 16 18H4C2.89544 18 2 17.1046 2 16ZM2 22C2 20.8954 2.89544 20 4 20H12C13.1046 20 14 20.8954 14 22C14 23.1046 13.1046 24 12 24H4C2.89544 24 2 23.1046 2 22Z" fill="#1D1D1F"/>
<path fill-rule="evenodd" clip-rule="evenodd" d="M20.8964 6.50007C22.8628 6.49931 24.206 6.49877 25.3412 6.86745C27.0284 7.41539 28.4468 8.53475 29.3726 10.0022H32.268C33.6444 10.0021 34.8232 10.0021 35.8012 10.1008C36.8464 10.2063 37.824 10.4362 38.757 10.9932C39.69 11.5501 40.356 12.3014 40.9446 13.1713C41.4952 13.9851 42.054 15.0224 42.7064 16.2337L45.307 21.0608C45.4654 21.3548 45.5428 21.6708 45.5466 21.9832L45.5468 22.0098V26.1198C45.547 28.3868 45.547 30.2394 45.3502 31.702C45.1446 33.2308 44.6994 34.5564 43.6408 35.6144C43.241 36.014 42.802 36.3268 42.3268 36.5726C42.1404 36.669 42.0472 36.7172 41.9578 36.7204C41.7996 36.7264 41.6478 36.634 41.5804 36.491C41.5424 36.41 41.5424 36.2796 41.5424 36.0186C41.5424 31.8738 38.1806 28.514 34.0336 28.514C29.8868 28.514 26.525 31.8738 26.525 36.0186C26.525 36.191 26.5308 36.362 26.5422 36.5316C26.5746 37.0096 26.5906 37.2484 26.4714 37.3756C26.352 37.5026 26.1312 37.5016 25.6898 37.4996L22.3468 37.4842C21.9104 37.4822 21.6922 37.4812 21.5742 37.3546C21.456 37.228 21.4716 36.9918 21.5028 36.5192C21.5138 36.3538 21.5192 36.1868 21.5192 36.0186C21.5192 31.8738 18.1575 28.514 14.0106 28.514C9.86369 28.514 6.50195 31.8738 6.50195 36.0186C6.50195 36.2796 6.50195 36.41 6.46379 36.491C6.39639 36.6342 6.24467 36.7264 6.08657 36.7206C5.99705 36.7172 5.90385 36.669 5.71747 36.5726C5.24221 36.327 4.80315 36.014 4.40329 35.6144C2.99995 34.2118 2.66589 32.3266 2.55431 30.0894C2.55313 30.0658 2.55251 30.0422 2.55245 30.0184L2.54709 27.8806C2.54591 27.4094 2.54533 27.1738 2.67387 27.0546C2.80241 26.9354 3.07037 26.9562 3.60631 26.9978C3.73591 27.0078 3.86689 27.013 3.99907 27.013H12.0083C14.7729 27.013 17.014 24.773 17.014 22.01C17.014 21.5224 17.014 21.2786 17.0699 21.1584C17.1054 21.082 17.1146 21.0682 17.1715 21.006C17.261 20.9082 17.487 20.814 17.9388 20.6256C19.7475 19.8714 21.0186 18.0872 21.0186 16.0062C21.0186 13.243 18.7775 11.0031 16.0129 11.0031H3.99907C3.57479 11.0031 3.36265 11.0031 3.25565 10.9225C3.17971 10.8653 3.13041 10.7906 3.10773 10.6983C3.07575 10.5683 3.14245 10.4127 3.27583 10.1014C3.54131 9.48191 3.90589 8.91609 4.41009 8.41091C5.46931 7.34959 6.79783 6.90343 8.33041 6.69729C9.79671 6.50007 11.6544 6.50011 13.928 6.50015L20.8964 6.50007ZM39.1204 20.5088C39.719 20.5088 40.0182 20.5088 40.1348 20.3138C40.2514 20.1188 40.1094 19.8555 39.8256 19.3288L39.2254 18.2145C38.5156 16.8971 38.0512 16.04 37.6272 15.4133C37.2286 14.824 36.9562 14.5803 36.7034 14.4294C36.4508 14.2785 36.107 14.1545 35.3988 14.083C34.6456 14.007 33.6704 14.0047 32.1734 14.0047H31.3388C30.949 14.0047 30.754 14.0047 30.6364 14.1237C30.5188 14.2427 30.5212 14.441 30.5264 14.8374C30.5314 15.2351 30.5306 15.6329 30.53 16.0306L30.5296 16.4063C30.5296 18.0131 30.548 18.4605 30.652 18.7803C30.8996 19.5419 31.497 20.139 32.259 20.3864C32.579 20.4904 33.0266 20.5088 34.6342 20.5088H39.1204Z" fill="#1D1D1F"/>
<path d="M34 41C36.7614 41 39 38.7614 39 36C39 33.2386 36.7614 31 34 31C31.2386 31 29 33.2386 29 36C29 38.7614 31.2386 41 34 41Z" fill="#1D1D1F"/>
<path d="M14 41C16.7614 41 19 38.7614 19 36C19 33.2386 16.7614 31 14 31C11.2386 31 9 33.2386 9 36C9 38.7614 11.2386 41 14 41Z" fill="#1D1D1F"/>
</svg>
