<svg width="36" height="36" viewBox="0 0 36 36" fill="none" xmlns="http://www.w3.org/2000/svg">
<path fill-rule="evenodd" clip-rule="evenodd" d="M22.346 4.55372C19.4393 4.48209 16.5607 4.48209 13.6539 4.55371L13.5674 4.55584C11.2979 4.61172 9.47166 4.65667 8.00811 4.90661C6.47583 5.16827 5.23048 5.67015 4.17841 6.70571C3.13073 7.73693 2.6216 8.94055 2.35983 10.4187C2.11057 11.8262 2.0726 13.5732 2.02558 15.7372L2.02371 15.8231C1.99209 17.2771 1.99209 18.7229 2.02372 20.1769L2.02558 20.2627C2.07262 22.4268 2.11057 24.1738 2.35983 25.5813C2.6216 27.0594 3.13074 28.263 4.17841 29.2943C5.23048 30.3298 6.47583 30.8317 8.00811 31.0934C9.47164 31.3432 11.2978 31.3883 13.5673 31.4441L13.6539 31.4463C16.5607 31.5179 19.4393 31.5179 22.346 31.4463L22.4327 31.4441C24.7021 31.3883 26.5284 31.3432 27.9919 31.0934C29.5242 30.8317 30.7695 30.3298 31.8216 29.2943C32.8693 28.263 33.3785 27.0594 33.6401 25.5813C33.8894 24.1738 33.9274 22.4268 33.9744 20.2626L33.9763 20.1769C34.0079 18.7229 34.0079 17.2771 33.9763 15.8231L33.9744 15.7374C33.9274 13.5732 33.8894 11.8262 33.6401 10.4187C33.3785 8.94056 32.8693 7.73696 31.8216 6.70574C30.7695 5.67018 29.5242 5.1683 27.9919 4.90664C26.5284 4.6567 24.7021 4.61174 22.4327 4.55586L22.346 4.55372ZM11.1264 11.9498C10.5957 11.6422 9.91119 11.8146 9.59742 12.335C9.28366 12.8554 9.45951 13.5266 9.99019 13.8343L14.369 16.3728C15.6652 17.1243 16.7836 17.6353 18.0001 17.6353C19.2167 17.6353 20.3353 17.1243 21.6313 16.3728L26.0101 13.8343C26.5409 13.5266 26.7166 12.8554 26.4029 12.335C26.0892 11.8146 25.4046 11.6422 24.8739 11.9498L20.4951 14.4885C19.2383 15.2171 18.5702 15.4461 18.0001 15.4461C17.4301 15.4461 16.762 15.2171 15.5052 14.4885L11.1264 11.9498Z" fill="#1D1D1F"/>
</svg>
