<svg width="18" height="18" viewBox="0 0 18 18" fill="none" xmlns="http://www.w3.org/2000/svg">
<path d="M12.4434 4.39163C11.6746 4.39156 10.991 4.39151 10.439 4.46574C9.83915 4.54643 9.23339 4.73247 8.73825 5.22771C8.24312 5.72296 8.05715 6.32892 7.97655 6.92903C7.90235 7.48115 7.90235 8.16506 7.90244 8.93406V9.66161H7.2439C6.63773 9.66161 6.14634 10.1531 6.14634 10.7595C6.14634 11.3658 6.63773 11.8574 7.2439 11.8574H7.90244V17.1234C7.90244 17.5399 7.90244 17.7481 7.77187 17.8771C7.64131 18.0061 7.4347 18.0034 7.02149 17.9982C5.97711 17.985 5.08895 17.9484 4.33582 17.847C3.12706 17.6845 2.168 17.3445 1.41446 16.5907C0.660925 15.837 0.321085 14.8777 0.158567 13.6685C-1.74016e-05 12.4885 -8.64983e-06 10.9772 1.30662e-07 9.05303V8.95258C-8.64983e-06 7.02848 -1.74016e-05 5.51715 0.158567 4.3372C0.321085 3.12804 0.660925 2.16869 1.41446 1.41491C2.168 0.661128 3.12706 0.321182 4.33582 0.15862C5.5154 -1.74278e-05 7.02627 -8.64985e-06 8.94977 1.30645e-07H9.05022C10.9738 -8.64985e-06 12.4846 -1.74278e-05 13.6642 0.15862C14.8729 0.321182 15.832 0.661128 16.5856 1.41491C17.3391 2.16869 17.6789 3.12803 17.8414 4.3372C18 5.51715 18 7.02849 18 8.95258V9.05312C18 10.9772 18 12.4885 17.8414 13.6685C17.6789 14.8777 17.3391 15.837 16.5856 16.5907C15.832 17.3445 14.8729 17.6845 13.6642 17.847C12.9111 17.9484 12.0229 17.985 10.9785 17.9982C10.5653 18.0034 10.3587 18.0061 10.2281 17.8771C10.0976 17.7481 10.0976 17.5399 10.0976 17.1234V11.8574H11.6341C12.2404 11.8574 12.7317 11.3658 12.7317 10.7595C12.7317 10.1531 12.2404 9.66161 11.6341 9.66161H10.0976V9.00281C10.0976 8.14373 10.0999 7.60978 10.1521 7.22161C10.1992 6.87124 10.2687 6.80203 10.2894 6.78145L10.2905 6.7804L10.2915 6.77933C10.3121 6.75865 10.3813 6.68908 10.7315 6.64197C11.1196 6.58978 11.6534 6.58745 12.5122 6.58745H13.3902C13.9964 6.58745 14.4878 6.0959 14.4878 5.48954C14.4878 4.88318 13.9964 4.39163 13.3902 4.39163H12.4434Z" fill="#7F7F7F"/>
</svg>
