<svg width="24" height="24" viewBox="0 0 24 24" fill="none" xmlns="http://www.w3.org/2000/svg">
<path d="M16.5913 5.85551C15.5662 5.85542 14.6546 5.85535 13.9187 5.95432C13.1189 6.0619 12.3112 6.30996 11.651 6.97029C10.9908 7.63061 10.7429 8.43856 10.6354 9.23871C10.5365 9.97487 10.5365 10.8867 10.5366 11.9121V12.8821H9.65854C8.85031 12.8821 8.19512 13.5375 8.19512 14.346C8.19512 15.1544 8.85031 15.8099 9.65854 15.8099H10.5366V22.8313C10.5366 23.3865 10.5366 23.6641 10.3625 23.8361C10.1884 24.0081 9.91294 24.0046 9.36199 23.9976C7.96948 23.98 6.78527 23.9312 5.7811 23.7961C4.16941 23.5794 2.89067 23.1261 1.88594 22.121C0.881233 21.116 0.428113 19.8369 0.211423 18.2247C-2.32022e-05 16.6513 -1.15331e-05 14.6363 1.74216e-07 12.0707V11.9368C-1.15331e-05 9.37131 -2.32022e-05 7.35619 0.211423 5.78293C0.428113 4.17072 0.881233 2.89158 1.88594 1.88654C2.89067 0.881503 4.16941 0.428243 5.7811 0.211493C7.35387 -2.32371e-05 9.36836 -1.15331e-05 11.933 1.74193e-07H12.067C14.6317 -1.15331e-05 16.6462 -2.32371e-05 18.2189 0.211493C19.8306 0.428243 21.1093 0.881503 22.1141 1.88654C23.1188 2.89158 23.5719 4.17071 23.7886 5.78293C24 7.35619 24 9.37132 24 11.9368V12.0708C24 14.6363 24 16.6513 23.7886 18.2247C23.5719 19.8369 23.1188 21.116 22.1141 22.121C21.1093 23.1261 19.8306 23.5794 18.2189 23.7961C17.2148 23.9312 16.0305 23.98 14.638 23.9976C14.0871 24.0046 13.8116 24.0081 13.6375 23.8361C13.4634 23.6641 13.4634 23.3865 13.4634 22.8313V15.8099H15.5122C16.3205 15.8099 16.9756 15.1544 16.9756 14.346C16.9756 13.5375 16.3205 12.8821 15.5122 12.8821H13.4634V12.0037C13.4634 10.8583 13.4666 10.1464 13.5361 9.62882C13.5989 9.16165 13.6916 9.06937 13.7192 9.04193L13.7206 9.04053L13.722 9.03911C13.7494 9.01153 13.8417 8.91877 14.3087 8.85596C14.8261 8.78637 15.5378 8.78327 16.6829 8.78327H17.8537C18.6619 8.78327 19.3171 8.12787 19.3171 7.31939C19.3171 6.51091 18.6619 5.85551 17.8537 5.85551H16.5913Z" fill="#CECECE"/>
</svg>
