<svg width="21" height="21" viewBox="0 0 21 21" fill="none" xmlns="http://www.w3.org/2000/svg">
<path d="M0.285706 16.6815V14.8596C0.285706 13.8934 0.676675 12.9666 1.37259 12.2833C2.06852 11.5999 3.01239 11.216 3.99658 11.216H6.31588" fill="black"/>
<path d="M7.70746 7.57244C9.75693 7.57244 11.4184 5.9411 11.4184 3.92878C11.4184 1.91647 9.75693 0.285156 7.70746 0.285156C5.65798 0.285156 3.99661 1.91647 3.99661 3.92878C3.99661 5.9411 5.65798 7.57244 7.70746 7.57244Z" fill="black"/>
<path d="M14.6291 6.14647L7.2428 14.5057L13.7355 14.6325L12.8993 20.2852L20.2857 11.9259L13.793 11.7991L14.6291 6.14647Z" fill="black"/>
<path d="M0.285706 16.6815V14.8596C0.285706 13.8934 0.676675 12.9666 1.37259 12.2833C2.06852 11.5999 3.01239 11.216 3.99658 11.216H6.31588M7.70746 7.57244C9.75693 7.57244 11.4184 5.9411 11.4184 3.92878C11.4184 1.91647 9.75693 0.285156 7.70746 0.285156C5.65798 0.285156 3.99661 1.91647 3.99661 3.92878C3.99661 5.9411 5.65798 7.57244 7.70746 7.57244ZM14.6291 6.14647L7.2428 14.5057L13.7355 14.6325L12.8993 20.2852L20.2857 11.9259L13.793 11.7991L14.6291 6.14647Z" stroke="black" stroke-width="0.571429" stroke-linecap="round" stroke-linejoin="round"/>
</svg>
