<svg width="20" height="18" viewBox="0 0 20 18" fill="none" xmlns="http://www.w3.org/2000/svg">
<path d="M6.51159 16.6154C6.51159 15.8507 7.13631 15.2308 7.90694 15.2308C8.67756 15.2308 9.30231 15.8507 9.30231 16.6154C9.30231 17.3801 8.67756 18 7.90694 18C7.13631 18 6.51159 17.3801 6.51159 16.6154Z" fill="black"/>
<path d="M14.4185 16.6154C14.4185 15.8507 15.0432 15.2308 15.8139 15.2308C16.5845 15.2308 17.2092 15.8507 17.2092 16.6154C17.2092 17.3801 16.5845 18 15.8139 18C15.0432 18 14.4185 17.3801 14.4185 16.6154Z" fill="black"/>
<path d="M1.12281 0L1.96038 0.00631384C2.2215 0.0128492 2.46285 0.0261138 2.67894 0.054083C3.13777 0.11352 3.60833 0.250985 4.00616 0.618388C4.40404 0.986022 4.57594 1.4421 4.66839 1.89212C4.72129 2.14958 4.7539 2.4456 4.78195 2.76923H16.7441C17.342 2.76923 17.796 2.76166 18.1839 2.8783C19.0014 3.12438 19.641 3.76002 19.889 4.57122C20.0067 4.95623 19.9999 5.40646 19.9999 6C19.9999 7.88169 20.007 8.97609 19.7292 9.88523C19.1204 11.8766 17.5499 13.435 15.5432 14.0391C14.6269 14.3148 13.5177 14.3077 11.6106 14.3077C9.79402 14.3077 8.73626 14.3146 7.84607 14.0553C5.94789 13.502 4.42305 12.0933 3.73181 10.2539C3.43455 9.46265 3.32301 8.33926 3.21219 6.8086L2.97782 3.5607C2.93212 2.92593 2.90242 2.53939 2.84519 2.26082C2.79338 2.00875 2.74293 1.97334 2.73891 1.96965C2.73498 1.96603 2.69579 1.91828 2.43821 1.88491C2.29613 1.86653 2.12744 1.85662 1.91406 1.85156L1.12281 1.84615H0.930228C0.416472 1.84615 0 1.43287 0 0.923077C0 0.41328 0.416472 0 0.930228 0H1.12281ZM9.06975 6.46154C8.68445 6.46154 8.37208 6.7715 8.37208 7.15385V9.92308C8.37208 10.3054 8.68445 10.6154 9.06975 10.6154C9.45505 10.6154 9.76742 10.3054 9.76742 9.92308V7.15385C9.76742 6.7715 9.45505 6.46154 9.06975 6.46154ZM13.7209 6.46154C13.3356 6.46154 13.0232 6.7715 13.0232 7.15385V9.92308C13.0232 10.3054 13.3356 10.6154 13.7209 10.6154C14.1062 10.6154 14.4186 10.3054 14.4186 9.92308V7.15385C14.4186 6.7715 14.1062 6.46154 13.7209 6.46154Z" fill="black"/>
</svg>
