<svg width="28" height="28" viewBox="0 0 28 28" fill="none" xmlns="http://www.w3.org/2000/svg">
<path d="M14.4969 4.06749C16.4189 2.62826 19.5945 1.77503 23.1069 3.92418C27.1381 6.39078 28.1108 12.9121 23.3545 18.9284C23.1449 19.1933 22.8284 19.3518 22.4902 19.3611C22.1521 19.3703 21.8273 19.2292 21.6036 18.9762L15.4958 12.0638L13.2498 13.464C11.9263 14.2892 10.2084 14.1035 9.09279 13.0146C7.61915 11.5762 7.76782 9.16848 9.40729 7.92141L13.3181 4.94669L14.4958 4.06824L14.4969 4.06749Z" fill="#EA0029"/>
<path fill-rule="evenodd" clip-rule="evenodd" d="M13.507 4.06801C13.5066 4.06782 13.5072 4.0682 13.507 4.06801L14.6845 4.94664C14.9708 5.16029 15.1401 5.49554 15.1417 5.85223C15.1433 6.20891 14.9772 6.54571 14.6929 6.762L10.7906 9.73021C10.2569 10.1362 10.2085 10.92 10.6883 11.3883C11.0515 11.7427 11.6107 11.8033 12.0416 11.5346L14.5345 9.98044C15.3383 9.47926 16.3877 9.63197 17.0146 10.3414L23.315 17.4717C23.6791 17.8838 23.6959 18.4967 23.3549 18.9281C22.2044 20.3834 20.718 21.8226 18.854 23.1989C18.8048 23.2353 18.756 23.2714 18.7076 23.3071C17.077 24.5123 15.9101 25.3748 14.0016 25.3748C12.0932 25.3748 10.9263 24.5123 9.29569 23.3071C9.24729 23.2714 9.19848 23.2353 9.14924 23.1989C4.33738 19.6462 2.03246 15.6605 1.55351 12.0982C1.07754 8.55811 2.43085 5.43228 4.8959 3.92395C8.4084 1.77471 11.585 2.62867 13.507 4.06801ZM12.1093 5.86624C10.8213 4.91531 8.67226 4.28209 6.08835 5.86315C4.54027 6.81039 3.43297 8.96284 3.81386 11.7958C4.19178 14.6066 6.06119 18.0886 10.506 21.3704C12.3239 22.7126 12.908 23.0998 14.0016 23.0998C15.0953 23.0998 15.6794 22.7126 17.4973 21.3704C18.893 20.3399 20.0356 19.2884 20.9578 18.2443L15.4963 12.0636L13.2503 13.4638C11.9267 14.289 10.2089 14.1033 9.09329 13.0144C7.61964 11.576 7.76831 9.16826 9.40778 7.92118L12.1093 5.86624Z" fill="#EA0029"/>
</svg>
