<svg width="18" height="18" viewBox="0 0 18 18" fill="none" xmlns="http://www.w3.org/2000/svg">
<path d="M11.7692 9.00001C11.7692 9.5477 11.6068 10.0831 11.3025 10.5385C10.9983 10.9939 10.5657 11.3488 10.0597 11.5584C9.55371 11.768 8.99695 11.8228 8.45972 11.716C7.92256 11.6092 7.42915 11.3454 7.04188 10.9581C6.6546 10.5709 6.39083 10.0774 6.28401 9.54022C6.17712 9.00306 6.23195 8.44624 6.44158 7.94023C6.65114 7.43422 7.00608 7.00174 7.46148 6.69747C7.91688 6.3932 8.45232 6.23079 9 6.23079C9.73447 6.23079 10.4388 6.52252 10.9581 7.04182C11.4775 7.56119 11.7692 8.26555 11.7692 9.00001ZM18 4.84617V13.1539C17.9986 14.4387 17.4876 15.6705 16.5791 16.579C15.6705 17.4876 14.4387 17.9986 13.1538 18H4.84615C3.56129 17.9986 2.32946 17.4876 1.42093 16.579C0.512391 15.6705 0.00137769 14.4387 0 13.1539V4.84617C0.00137769 3.56129 0.512391 2.32945 1.42093 1.42092C2.32946 0.51239 3.56129 0.00137769 4.84615 0H13.1538C14.4387 0.00137769 15.6705 0.51239 16.5791 1.42092C17.4876 2.32945 17.9986 3.56129 18 4.84617ZM13.1538 9.00001C13.1538 8.17845 12.9102 7.37531 12.4538 6.69221C11.9973 6.00911 11.3487 5.47673 10.5896 5.16235C9.83056 4.84797 8.99536 4.76566 8.18965 4.926C7.38388 5.08627 6.64373 5.48185 6.06282 6.06276C5.48183 6.64368 5.08625 7.38382 4.92598 8.1896C4.76569 8.99537 4.84795 9.83057 5.16233 10.5896C5.47671 11.3486 6.00916 11.9974 6.69226 12.4538C7.37536 12.9102 8.17844 13.1539 9 13.1539C10.1013 13.1527 11.1572 12.7147 11.9359 11.9359C12.7147 11.1572 13.1527 10.1013 13.1538 9.00001ZM15.2308 3.80769C15.2308 3.6023 15.1698 3.40152 15.0558 3.23075C14.9417 3.05997 14.7795 2.92687 14.5897 2.84827C14.3999 2.76968 14.1911 2.74911 13.9897 2.78918C13.7883 2.82925 13.6032 2.92815 13.458 3.07338C13.3128 3.21862 13.2139 3.40365 13.1738 3.6051C13.1337 3.80654 13.1543 4.01534 13.2329 4.20509C13.3115 4.39485 13.4446 4.55703 13.6153 4.67116C13.7861 4.78525 13.9869 4.84617 14.1923 4.84617C14.4677 4.84617 14.7319 4.73672 14.9266 4.54199C15.1214 4.34724 15.2308 4.08311 15.2308 3.80769Z" fill="#7F7F7F"/>
</svg>
