<svg width="24" height="24" viewBox="0 0 24 24" fill="none" xmlns="http://www.w3.org/2000/svg">
<path d="M15.6923 12C15.6923 12.7303 15.4758 13.4441 15.0701 14.0513C14.6644 14.6585 14.0876 15.1317 13.413 15.4112C12.7383 15.6907 11.9959 15.7638 11.2796 15.6213C10.5634 15.4789 9.90554 15.1272 9.38917 14.6108C8.8728 14.0945 8.52111 13.4365 8.37868 12.7203C8.23615 12.0041 8.30926 11.2617 8.58877 10.587C8.86818 9.9123 9.34145 9.33565 9.94865 8.92996C10.5558 8.52427 11.2698 8.30772 12 8.30772C12.9793 8.30772 13.9184 8.6967 14.6108 9.3891C15.3033 10.0816 15.6923 11.0207 15.6923 12ZM24 6.46157V17.5385C23.9982 19.2516 23.3168 20.894 22.1055 22.1054C20.894 23.3167 19.2516 23.9982 17.5385 24H6.46154C4.74839 23.9982 3.10594 23.3167 1.89457 22.1054C0.683188 20.894 0.00183692 19.2516 0 17.5385V6.46157C0.00183692 4.74839 0.683188 3.10594 1.89457 1.89457C3.10594 0.683186 4.74839 0.00183692 6.46154 0H17.5385C19.2516 0.00183692 20.894 0.683186 22.1055 1.89457C23.3168 3.10594 23.9982 4.74839 24 6.46157ZM17.5385 12C17.5385 10.9046 17.2136 9.83375 16.605 8.92295C15.9965 8.01215 15.1315 7.3023 14.1195 6.88313C13.1074 6.46397 11.9938 6.35421 10.9195 6.568C9.84517 6.78169 8.85831 7.30913 8.08375 8.08369C7.30911 8.85824 6.78166 9.8451 6.56797 10.9195C6.35426 11.9938 6.46394 13.1074 6.88311 14.1195C7.30228 15.1315 8.01222 15.9965 8.92302 16.6051C9.83382 17.2136 10.9046 17.5385 12 17.5385C13.4684 17.5369 14.8763 16.9529 15.9146 15.9146C16.953 14.8762 17.5369 13.4684 17.5385 12ZM20.3077 5.07691C20.3077 4.80307 20.2265 4.53537 20.0743 4.30767C19.9222 4.07997 19.7059 3.9025 19.4529 3.7977C19.1999 3.6929 18.9215 3.66549 18.653 3.7189C18.3844 3.77233 18.1376 3.9042 17.944 4.09785C17.7504 4.29149 17.6185 4.5382 17.565 4.8068C17.5116 5.07538 17.5391 5.35378 17.6439 5.60679C17.7486 5.85979 17.9262 6.07604 18.1538 6.22821C18.3815 6.38033 18.6492 6.46157 18.9231 6.46157C19.2903 6.46157 19.6425 6.31563 19.9022 6.05598C20.1618 5.79632 20.3077 5.44414 20.3077 5.07691Z" fill="#CECECE"/>
</svg>
