<svg width="158" height="35" viewBox="0 0 158 35" fill="none" xmlns="http://www.w3.org/2000/svg">
<path d="M2.92399 0.83532H0L0.179104 0H6.95231L6.78312 0.83532H3.87895L2.72506 6.23628H1.7701L2.92399 0.83532Z" fill="#EA0029"/>
<path d="M16.6408 0.000369611L15.3181 6.23665H14.4031L15.4275 1.41263L11.6876 4.91356H11.0211L8.73353 1.35281L7.69929 6.23628H6.77441L8.09713 0H9.01209L11.5382 3.9285L15.7255 0H16.6404L16.6408 0.000369611Z" fill="#EA0029"/>
<path d="M24.6684 0L21.6813 8.20529H39.634L32.6824 27.3046H0L10.3571 34.6647L10.4389 34.723H39.3213L51.959 0H24.6684Z" fill="#EA0029"/>
<path d="M56.4525 0L43.8145 34.7223H53.1527L62.8044 8.20492H92.5629L88.3117 19.8869H61.5723L70.8086 27.247L94.9503 27.3046L104.888 0H56.4525Z" fill="#EA0029"/>
<path d="M109.381 0L106.395 8.20529H154.831L157.817 0H109.381Z" fill="#EA0029"/>
<path d="M135.704 8.20508L126.052 34.7228H116.714L123.108 17.1569L135.704 8.20508Z" fill="#EA0029"/>
</svg>
