<svg width="32" height="27" viewBox="0 0 32 27" fill="none" xmlns="http://www.w3.org/2000/svg">
<path fill-rule="evenodd" clip-rule="evenodd" d="M20.346 0.0537245C17.4393 -0.0179057 14.5607 -0.0179057 11.6539 0.0537098L11.5674 0.0558408C9.29786 0.111723 7.47166 0.156675 6.00811 0.406607C4.47583 0.668273 3.23048 1.17015 2.17841 2.20571C1.13073 3.23693 0.621602 4.44055 0.359827 5.91869C0.110569 7.32616 0.0726009 9.07316 0.0255832 11.2372L0.023708 11.3231C-0.00790504 12.7771 -0.00790519 14.2229 0.0237227 15.6769L0.0255832 15.7627C0.0726158 17.9268 0.110569 19.6738 0.359827 21.0813C0.621602 22.5594 1.13074 23.763 2.17841 24.7943C3.23048 25.8298 4.47583 26.3317 6.00811 26.5934C7.47164 26.8432 9.29781 26.8883 11.5673 26.9441L11.6539 26.9463C14.5607 27.0179 17.4393 27.0179 20.346 26.9463L20.4327 26.9441C22.7021 26.8883 24.5284 26.8432 25.9919 26.5934C27.5242 26.3317 28.7695 25.8298 29.8216 24.7943C30.8693 23.763 31.3785 22.5594 31.6401 21.0813C31.8894 19.6738 31.9274 17.9268 31.9744 15.7626L31.9763 15.6769C32.0079 14.2229 32.0079 12.7771 31.9763 11.3231L31.9744 11.2374C31.9274 9.0732 31.8894 7.32617 31.6401 5.91871C31.3785 4.44056 30.8693 3.23696 29.8216 2.20574C28.7695 1.17018 27.5242 0.668302 25.9919 0.406636C24.5284 0.156704 22.7021 0.111738 20.4327 0.0558554L20.346 0.0537245ZM9.12643 7.44983C8.59575 7.14216 7.91119 7.3146 7.59742 7.83497C7.28366 8.35535 7.45951 9.02661 7.99019 9.33428L12.369 11.8728C13.6652 12.6243 14.7836 13.1353 16.0001 13.1353C17.2167 13.1353 18.3353 12.6243 19.6313 11.8728L24.0101 9.33428C24.5409 9.02661 24.7166 8.35535 24.4029 7.83497C24.0892 7.3146 23.4046 7.14216 22.8739 7.44983L18.4951 9.98846C17.2383 10.7171 16.5702 10.9461 16.0001 10.9461C15.4301 10.9461 14.762 10.7171 13.5052 9.98846L9.12643 7.44983Z" fill="#1D1D1F"/>
</svg>
