<svg width="48" height="48" viewBox="0 0 48 48" fill="none" xmlns="http://www.w3.org/2000/svg">
<path d="M5.97078 20.4096C6.50996 19.7511 6.77956 19.4219 7.0415 19.5157C7.30346 19.6096 7.30268 20.0664 7.3011 20.9798C7.30108 20.9914 7.30106 21.003 7.30106 21.0146C7.30106 31.886 16.1141 40.699 26.9854 40.699C26.997 40.699 27.0086 40.699 27.0202 40.699C27.9336 40.6974 28.3904 40.6966 28.4842 40.9586C28.578 41.2204 28.2488 41.49 27.5904 42.0292C24.9414 44.1984 21.5544 45.5 17.8634 45.5C9.37844 45.5 2.5 38.6216 2.5 30.1366C2.5 26.4456 3.80156 23.0586 5.97078 20.4096Z" fill="#7F7F7F"/>
<path fill-rule="evenodd" clip-rule="evenodd" d="M28 2.5C18.335 2.5 10.5 10.335 10.5 20C10.5 29.665 18.335 37.5 28 37.5C37.665 37.5 45.5 29.665 45.5 20C45.5 10.335 37.665 2.5 28 2.5ZM29.4702 12C29.4702 11.1716 28.7986 10.5 27.9702 10.5C27.1416 10.5 26.4702 11.1716 26.4702 12V12.4827C24.4258 13.0486 22.7758 14.7443 22.7758 17.0045C22.7758 18.1853 23.123 19.3852 24.1802 20.2282C25.1604 21.0098 26.4956 21.27 27.9702 21.27C29.1976 21.27 29.7978 21.4914 30.0762 21.7062C30.2678 21.8542 30.5002 22.146 30.5002 22.9962C30.5002 23.6978 30.2566 24.0336 29.9508 24.2512C29.5688 24.5226 28.9102 24.7226 27.9702 24.7226C26.469 24.7226 25.604 23.8688 25.4658 23.2356C25.289 22.4262 24.4896 21.9134 23.6804 22.0902C22.871 22.2668 22.3582 23.0662 22.5348 23.8756C22.951 25.7818 24.5776 27.0888 26.4702 27.5444V28C26.4702 28.8284 27.1416 29.5 27.9702 29.5C28.7986 29.5 29.4702 28.8284 29.4702 28V27.592C30.2612 27.446 31.0278 27.1662 31.689 26.6962C32.8418 25.8766 33.5002 24.5992 33.5002 22.9962C33.5002 21.542 33.0612 20.2206 31.9094 19.3315C30.8442 18.5093 29.4294 18.2699 27.9702 18.2699C26.7578 18.2699 26.2458 18.0382 26.0506 17.8826C25.9324 17.7883 25.7758 17.6055 25.7758 17.0045C25.7758 16.2354 26.561 15.2781 27.9702 15.2781C29.207 15.2781 29.9992 16.0452 30.1382 16.7392C30.301 17.5515 31.0914 18.078 31.9038 17.9152C32.716 17.7524 33.2426 16.962 33.0798 16.1497C32.7114 14.3117 31.249 12.9692 29.4702 12.4803V12Z" fill="#7F7F7F"/>
</svg>
