<svg width="28" height="28" viewBox="0 0 28 28" fill="none" xmlns="http://www.w3.org/2000/svg">
<path fill-rule="evenodd" clip-rule="evenodd" d="M14.0661 2.04102C16.6219 2.041 18.6294 2.04099 20.1967 2.2517C21.8027 2.46764 23.0771 2.91919 24.0783 3.92041C25.0795 4.92164 25.531 6.19595 25.747 7.80204C25.9577 9.36936 25.9577 11.3768 25.9577 13.9326V14.0661C25.9577 16.6219 25.9577 18.6294 25.747 20.1967C25.531 21.8027 25.0795 23.0771 24.0783 24.0783C23.0771 25.0795 21.8027 25.531 20.1967 25.747C18.6294 25.9577 16.6219 25.9577 14.0661 25.9577H13.9326C11.3768 25.9577 9.36936 25.9577 7.80204 25.747C6.19595 25.531 4.92164 25.0795 3.92041 24.0783C2.91919 23.0771 2.46764 21.8027 2.2517 20.1967C2.04099 18.6294 2.041 16.6219 2.04102 14.0661V13.9326C2.041 11.3768 2.04099 9.36936 2.2517 7.80204C2.46764 6.19595 2.91919 4.92164 3.92041 3.92041C4.92164 2.91919 6.19595 2.46764 7.80204 2.2517C9.36936 2.04099 11.3768 2.041 13.9326 2.04102H14.0661ZM8.16602 17.791C8.64926 17.791 9.04102 18.1828 9.04102 18.666V20.9993C9.04102 21.4826 8.64926 21.8743 8.16602 21.8743C7.68277 21.8743 7.29102 21.4826 7.29102 20.9993V18.666C7.29102 18.1828 7.68277 17.791 8.16602 17.791ZM14.8743 17.4993C14.8743 17.0161 14.4826 16.6243 13.9993 16.6243C13.5161 16.6243 13.1243 17.0161 13.1243 17.4993V20.9993C13.1243 21.4826 13.5161 21.8743 13.9993 21.8743C14.4826 21.8743 14.8743 21.4826 14.8743 20.9993V17.4993ZM19.8327 14.291C20.3159 14.291 20.7077 14.6828 20.7077 15.166V20.9993C20.7077 21.4826 20.3159 21.8743 19.8327 21.8743C19.3495 21.8743 18.9577 21.4826 18.9577 20.9993V15.166C18.9577 14.6828 19.3495 14.291 19.8327 14.291ZM18.5014 6.12701C18.7712 6.1147 19.0969 6.13946 19.4182 6.32212C19.7515 6.51153 19.9364 6.78831 20.0533 7.04724C20.1493 7.26002 20.2235 7.51926 20.2912 7.756L20.3027 7.79615L20.6739 9.09171C20.807 9.55626 20.5383 10.0408 20.0737 10.1738C19.6091 10.3069 19.1246 10.0382 18.9915 9.57367L18.8204 8.97624C16.2144 12.7229 12.0417 14.291 6.99935 14.291C6.5161 14.291 6.12435 13.8993 6.12435 13.416C6.12435 12.9328 6.5161 12.541 6.99935 12.541C11.6108 12.541 15.1233 11.1501 17.3196 8.06729L16.4751 8.20659C15.9983 8.28525 15.548 7.96248 15.4693 7.48567C15.3907 7.00886 15.7134 6.55858 16.1902 6.47993L17.6692 6.23598L17.7079 6.22959C17.9849 6.18383 18.2631 6.13788 18.5014 6.12701Z" fill="#EA0029"/>
</svg>
