<svg width="36" height="36" viewBox="0 0 36 36" fill="none" xmlns="http://www.w3.org/2000/svg">
<path d="M33.9814 26.1727C33.6961 28.3408 32.6313 30.3309 30.986 31.7713C29.3406 33.2117 27.2272 34.0039 25.0404 34C12.3362 34 2.00001 23.6639 2.00001 10.9598C1.99609 8.77301 2.78833 6.6596 4.22875 5.01426C5.66916 3.36892 7.65926 2.30417 9.82735 2.01888C10.3756 1.95193 10.9308 2.0641 11.4101 2.33862C11.8893 2.61315 12.267 3.03531 12.4866 3.54209L15.8659 11.0862V11.1054C16.034 11.4933 16.1034 11.9168 16.068 12.3381C16.0325 12.7594 15.8933 13.1654 15.6627 13.5198C15.6338 13.563 15.6034 13.603 15.5714 13.643L12.2402 17.5918C13.4386 20.0271 15.9859 22.5519 18.4531 23.7535L22.3476 20.4399C22.3858 20.4077 22.4259 20.3778 22.4676 20.3503C22.8216 20.1141 23.229 19.9699 23.6528 19.9308C24.0766 19.8917 24.5035 19.9589 24.8948 20.1263L24.9156 20.1359L32.4533 23.5135C32.961 23.7323 33.3842 24.1096 33.6596 24.589C33.9351 25.0683 34.0479 25.6239 33.9814 26.1727Z" fill="#1D1D1F"/>
</svg>
