<svg width="28" height="28" viewBox="0 0 28 28" fill="none" xmlns="http://www.w3.org/2000/svg">
<path d="M21.505 7.29232H23.8775C24.9959 7.29232 25.5552 7.29232 25.9026 7.63402C26.25 7.97574 26.25 8.52571 26.25 9.62565V14.2924C26.25 15.3923 26.25 15.9423 25.9026 16.284C25.5552 16.6257 24.9959 16.6257 23.8775 16.6257H23.1811C23.1643 16.2244 23.001 15.8279 22.6912 15.5214L15.5737 8.47982H14.3875L12.9234 9.92831C12.0686 10.774 10.7077 10.8486 9.76375 10.1014L9.48582 9.88147C9.00521 9.50107 8.7649 9.31087 8.75066 9.05101C8.73641 8.79113 8.95452 8.57663 9.39074 8.1476L10.5482 7.00924C11.5768 5.99763 12.0911 5.49182 12.745 5.2254C13.3991 4.95898 14.3366 4.95898 15.7913 4.95898C16.8609 4.95898 17.3957 4.95898 17.9001 5.10916C18.4043 5.25934 18.8494 5.5511 19.7393 6.13463L21.505 7.29232Z" fill="#EA0029"/>
<path d="M4.08333 8.45898H7.42428C7.32659 8.67217 7.28064 8.90812 7.29391 9.14732C7.31677 9.56001 7.5137 9.94361 7.8357 10.2027L9.12157 11.2376C10.632 12.4531 12.8113 12.331 14.1777 10.9564L15.0316 10.0974L21.5834 16.6881C21.888 16.9946 22.0485 17.391 22.0652 17.7924C22.0836 18.2399 21.9231 18.6936 21.5834 19.0353C20.939 19.6835 19.8944 19.6835 19.25 19.0353L18.6667 18.4486C19.311 19.0967 19.311 20.1476 18.6667 20.7958C18.0223 21.4439 16.9777 21.4439 16.3334 20.7958L15.1667 19.6222C15.811 20.2704 15.811 21.3212 15.1667 21.9694C14.5223 22.6176 13.4777 22.6176 12.8334 21.9694L11.0833 20.209C11.7277 20.8571 11.7277 21.908 11.0833 22.5562C10.439 23.2044 9.39433 23.2044 8.75 22.5562L4.76954 18.4928C4.44941 18.166 4.28934 18.0026 4.09107 17.9125C3.89279 17.8223 3.62942 17.8072 3.10267 17.777C2.61836 17.7491 2.31183 17.6707 2.09171 17.4506C1.75 17.1089 1.75 16.559 1.75 15.459V10.7923C1.75 9.69237 1.75 9.14241 2.09171 8.80069C2.43341 8.45898 2.98339 8.45898 4.08333 8.45898Z" fill="#EA0029"/>
</svg>
