<svg width="35" height="38" viewBox="0 0 35 38" fill="none" xmlns="http://www.w3.org/2000/svg">
<path d="M17.5 0C22.1826 0 26.5461 1.021 30.141 2.78234C31.7931 3.59178 32.9616 4.13882 33.992 5.77697C35.0391 7.44197 34.9998 9.10346 34.9998 11.4849V17.652C34.9995 28.4981 26.1989 34.4181 21.3947 36.8522L21.3299 36.8849C20.0415 37.538 19.1299 38 17.5 38C15.8703 38 14.9601 37.5378 13.6719 36.8849L13.6053 36.8522C8.80094 34.4181 0.000425994 28.4979 0.000192663 17.652V11.4849C0.000192663 9.10349 -0.0391865 7.44194 1.00804 5.77697C2.03844 4.1388 3.20687 3.59174 4.85891 2.78234C8.45388 1.02098 12.8174 3.53488e-05 17.5 0ZM17.5 11.4884C16.667 11.4884 15.8681 11.8145 15.2792 12.3945C14.6902 12.9746 14.359 13.7611 14.359 14.5814C14.359 15.4017 14.6902 16.1882 15.2792 16.7683C15.4735 16.9595 15.6924 17.1198 15.9259 17.2532L14.8375 22.257C14.7523 22.6484 14.8519 23.0573 15.1075 23.3686C15.3629 23.6795 15.7475 23.8605 16.1539 23.8605H18.8462C19.2523 23.8605 19.637 23.6795 19.8926 23.3686C20.1481 23.0572 20.2476 22.6484 20.1625 22.257L19.0723 17.2532C19.3064 17.1196 19.5262 16.9598 19.7208 16.7683C20.3099 16.1882 20.641 15.4017 20.641 14.5814C20.641 13.7611 20.3099 12.9746 19.7208 12.3945C19.1317 11.8146 18.333 11.4884 17.5 11.4884Z" fill="#1D1D1F"/>
</svg>
