<svg width="28" height="28" viewBox="0 0 28 28" fill="none" xmlns="http://www.w3.org/2000/svg">
<path fill-rule="evenodd" clip-rule="evenodd" d="M1.75 3.50065C1.75 2.85631 2.27234 2.33398 2.91667 2.33398H25.0833C25.7277 2.33398 26.25 2.85631 26.25 3.50065C26.25 4.14498 25.7277 4.66732 25.0833 4.66732H2.91667C2.27234 4.66732 1.75 4.14498 1.75 3.50065Z" fill="#EA0029"/>
<path fill-rule="evenodd" clip-rule="evenodd" d="M23.625 18.6443V3.5H4.375V18.6443C4.375 18.9356 4.51995 19.2078 4.76163 19.3703L13.4373 25.2061C13.7717 25.431 14.2088 25.4313 14.5434 25.2067L23.2377 19.3708C23.4797 19.2084 23.625 18.936 23.625 18.6443ZM14.7138 7.88629C14.5658 7.67031 14.321 7.54117 14.0593 7.54117C13.7975 7.54117 13.5526 7.67031 13.4048 7.88629L12.071 9.83476L10.2508 10.3774C9.99808 10.4528 9.79935 10.6488 9.72053 10.9004C9.64169 11.152 9.69309 11.4264 9.85763 11.6324L11.1428 13.2417L10.8838 15.4037C10.8507 15.6806 10.9654 15.9547 11.186 16.1254C11.4066 16.296 11.7006 16.3383 11.9603 16.2367L14.0593 15.4153L16.1581 16.2367C16.4179 16.3383 16.7119 16.296 16.9325 16.1254C17.1531 15.9547 17.2678 15.6806 17.2347 15.4037L16.9757 13.2417L18.2609 11.6324C18.4254 11.4264 18.4768 11.152 18.398 10.9004C18.3191 10.6488 18.1204 10.4528 17.8677 10.3774L16.0475 9.83476L14.7138 7.88629Z" fill="#EA0029"/>
</svg>
