<svg width="43" height="31" viewBox="0 0 43 31" fill="none" xmlns="http://www.w3.org/2000/svg">
<path d="M25 3.7271C25 2.57664 25 2.00142 24.6594 1.49514C23.4616 -0.284936 20.1572 0.0194839 18.378 0.0201839L11.3926 0.020264C9.12696 0.020204 7.2755 0.0201642 5.81378 0.216704C4.28588 0.422124 2.9612 0.866684 1.90382 1.92406C0.846421 2.98144 0.401861 4.30612 0.196441 5.83402C-7.88718e-05 7.29572 -3.88588e-05 9.14712 1.14124e-06 11.4127L1.14124e-06 19.6276C-3.88588e-05 21.8932 -7.88718e-05 23.7448 0.196441 25.2066C0.401861 26.7344 0.846421 28.059 1.90382 29.1164C2.30314 29.5158 2.74162 29.8284 3.2162 30.074C3.40256 30.1704 3.49574 30.2186 3.58522 30.2218C3.74304 30.2278 3.89448 30.1356 3.96182 29.9928C4 29.9118 4 29.7812 4 29.5202C4 25.378 7.35786 22.0202 11.5 22.0202C15.6421 22.0202 19 25.378 19 29.5202C19 29.6822 18.9948 29.843 18.9848 30.0026C18.9546 30.476 18.9396 30.7126 19.0582 30.839C19.1766 30.9652 19.3952 30.9652 19.8322 30.9652H23.1678C23.6048 30.9652 23.8234 30.9652 23.9418 30.839C24.0604 30.7126 24.0454 30.476 24.0152 30.0026C24.0052 29.843 24 29.6822 24 29.5202C24 25.378 27.3578 22.0202 31.5 22.0202C35.6422 22.0202 39 25.378 39 29.5202C39 29.7812 39 29.9118 39.0382 29.9928C39.1056 30.1356 39.257 30.2278 39.4148 30.2218C39.5042 30.2186 39.5974 30.1704 39.7838 30.074C40.2584 29.8284 40.6968 29.5158 41.0962 29.1164C42.1536 28.059 42.5982 26.7344 42.8036 25.2066C43 23.7448 43 21.8934 43 19.628V17.8202C43 17.443 43 17.2544 42.8828 17.1372C42.7656 17.0202 42.5772 17.0202 42.2 17.0202L37.5 17.0202C36.6716 17.0202 36 16.3486 36 15.5202C36 14.6918 36.6716 14.0202 37.5 14.0202H41.0564C41.6542 14.0202 41.9532 14.0202 42.0696 13.8252C42.186 13.6304 42.0442 13.3672 41.7608 12.8408L40.2326 10.0026C39.5726 8.7769 39.0248 7.75962 38.4892 6.96748C37.925 6.13318 37.309 5.44578 36.462 4.9399C35.615 4.43402 34.7178 4.21746 33.7158 4.11628C32.7642 4.0202 31.609 4.02022 30.2168 4.02026L29.2 4.02026C28.2072 4.02026 28 4.22746 28 5.22026L28 10.0046C28 11.1529 28.0002 12.1428 27.9062 12.9442C27.8062 13.798 27.5826 14.6288 26.9972 15.3518C25.6348 17.034 23.1744 17.0238 21.2196 17.0202L20.2002 17.02C19.6344 17.02 19.3516 17.0198 19.1758 17.1956C19 17.3714 19 17.6542 19 18.22V19.5192C19.0004 19.864 18.8824 20.2108 18.641 20.4936C18.103 21.1238 17.1563 21.1986 16.5262 20.6608L14.1184 18.6056C13.6224 18.1824 13.1408 17.7716 12.7959 17.3856C12.4169 16.9616 12 16.3508 12 15.5198C12 14.6888 12.4169 14.078 12.7959 13.654C13.1408 13.2682 13.6223 12.8574 14.1184 12.4341L16.5262 10.3789C17.1563 9.84108 18.103 9.91588 18.641 10.546C18.882 10.8285 19 11.1747 19 11.5191V12.8198C19 13.3856 19 13.6684 19.1758 13.844C19.3516 14.0198 19.6344 14.0198 20.2 14.0198H20.9C23.2782 14.0198 24.038 13.95 24.5948 13.5056C24.7812 13.3566 24.8586 13.1758 24.9266 12.5953C24.9976 11.9892 25 11.177 25 9.91982L25 3.7271Z" fill="#7F7F7F"/>
</svg>
