<svg width="48" height="48" viewBox="0 0 48 48" fill="none" xmlns="http://www.w3.org/2000/svg">
<path d="M34 41.75C36.7614 41.75 39 39.5114 39 36.75C39 33.9886 36.7614 31.75 34 31.75C31.2386 31.75 29 33.9886 29 36.75C29 39.5114 31.2386 41.75 34 41.75Z" fill="#7F7F7F"/>
<path d="M14 41.75C16.7614 41.75 19 39.5114 19 36.75C19 33.9886 16.7614 31.75 14 31.75C11.2386 31.75 9 33.9886 9 36.75C9 39.5114 11.2386 41.75 14 41.75Z" fill="#7F7F7F"/>
<path d="M27.5 10.9615C27.5 9.81102 27.5 9.2358 27.1594 8.72952C25.9616 6.94944 22.6572 7.25386 20.878 7.25456L13.8926 7.25464C11.627 7.25458 9.7755 7.25454 8.31378 7.45108C6.78588 7.6565 5.4612 8.10106 4.40382 9.15844C3.34642 10.2158 2.90186 11.5405 2.69644 13.0684C2.49992 14.5301 2.49996 16.3815 2.5 18.6471L2.5 26.862C2.49996 29.1276 2.49992 30.9792 2.69644 32.441C2.90186 33.9688 3.34642 35.2934 4.40382 36.3508C4.80314 36.7502 5.24162 37.0628 5.7162 37.3084C5.90256 37.4048 5.99574 37.453 6.08522 37.4562C6.24304 37.4622 6.39448 37.37 6.46182 37.2272C6.5 37.1462 6.5 37.0156 6.5 36.7546C6.5 32.6124 9.85786 29.2546 14 29.2546C18.1421 29.2546 21.5 32.6124 21.5 36.7546C21.5 36.9166 21.4948 37.0774 21.4848 37.237C21.4546 37.7104 21.4396 37.947 21.5582 38.0734C21.6766 38.1996 21.8952 38.1996 22.3322 38.1996H25.6678C26.1048 38.1996 26.3234 38.1996 26.4418 38.0734C26.5604 37.947 26.5454 37.7104 26.5152 37.237C26.5052 37.0774 26.5 36.9166 26.5 36.7546C26.5 32.6124 29.8578 29.2546 34 29.2546C38.1422 29.2546 41.5 32.6124 41.5 36.7546C41.5 37.0156 41.5 37.1462 41.5382 37.2272C41.6056 37.37 41.757 37.4622 41.9148 37.4562C42.0042 37.453 42.0974 37.4048 42.2838 37.3084C42.7584 37.0628 43.1968 36.7502 43.5962 36.3508C44.6536 35.2934 45.0982 33.9688 45.3036 32.441C45.5 30.9792 45.5 29.1278 45.5 26.8624V25.0546C45.5 24.6774 45.5 24.4888 45.3828 24.3716C45.2656 24.2546 45.0772 24.2546 44.7 24.2546L40 24.2546C39.1716 24.2546 38.5 23.583 38.5 22.7546C38.5 21.9262 39.1716 21.2546 40 21.2546H43.5564C44.1542 21.2546 44.4532 21.2546 44.5696 21.0596C44.686 20.8648 44.5442 20.6016 44.2608 20.0752L42.7326 17.237C42.0726 16.0113 41.5248 14.994 40.9892 14.2019C40.425 13.3676 39.809 12.6802 38.962 12.1743C38.115 11.6684 37.2178 11.4518 36.2158 11.3507C35.2642 11.2546 34.109 11.2546 32.7168 11.2546H31.7C30.7072 11.2546 30.5 11.4618 30.5 12.4546L30.5 17.239C30.5 18.3873 30.5002 19.3772 30.4062 20.1786C30.3062 21.0324 30.0826 21.8632 29.4972 22.5862C28.1348 24.2684 25.6744 24.2582 23.7196 24.2546L22.7002 24.2544C22.1344 24.2544 21.8516 24.2542 21.6758 24.43C21.5 24.6058 21.5 24.8886 21.5 25.4544V26.7536C21.5004 27.0984 21.3824 27.4452 21.141 27.728C20.603 28.3582 19.6563 28.433 19.0262 27.8952L16.6184 25.84C16.1224 25.4168 15.6408 25.006 15.2959 24.62C14.9169 24.196 14.5 23.5852 14.5 22.7542C14.5 21.9232 14.9169 21.3124 15.2959 20.8884C15.6408 20.5026 16.1223 20.0918 16.6184 19.6684L19.0262 17.6133C19.6563 17.0755 20.603 17.1503 21.141 17.7804C21.382 18.0629 21.5 18.4091 21.5 18.7535V20.0542C21.5 20.62 21.5 20.9028 21.6758 21.0784C21.8516 21.2542 22.1344 21.2542 22.7 21.2542H23.4C25.7782 21.2542 26.538 21.1844 27.0948 20.74C27.2812 20.591 27.3586 20.4102 27.4266 19.8297C27.4976 19.2236 27.5 18.4114 27.5 17.1542L27.5 10.9615Z" fill="#7F7F7F"/>
</svg>
