<svg width="18" height="18" viewBox="0 0 18 18" fill="none" xmlns="http://www.w3.org/2000/svg">
<path fill-rule="evenodd" clip-rule="evenodd" d="M11.0769 3.44595C11.0769 1.5428 12.6267 0 14.5385 0C16.4502 0 18 1.5428 18 3.44595C18 5.34909 16.4502 6.89189 14.5385 6.89189C12.6267 6.89189 11.0769 5.34909 11.0769 3.44595Z" fill="#535559"/>
<path fill-rule="evenodd" clip-rule="evenodd" d="M0 8.5C0 6.59685 1.54978 5.05405 3.46154 5.05405C5.3733 5.05405 6.92308 6.59685 6.92308 8.5C6.92308 10.4032 5.3733 11.9459 3.46154 11.9459C1.54978 11.9459 0 10.4032 0 8.5Z" fill="#535559"/>
<path fill-rule="evenodd" clip-rule="evenodd" d="M11.0769 14.5541C11.0769 12.6509 12.6267 11.1081 14.5385 11.1081C16.4502 11.1081 18 12.6509 18 14.5541C18 16.4572 16.4502 18 14.5385 18C12.6267 18 11.0769 16.4572 11.0769 14.5541Z" fill="#535559"/>
<path fill-rule="evenodd" clip-rule="evenodd" d="M12.3661 5.43056L6.36608 8.18683L5.59255 6.51809L11.5926 3.76182L12.3661 5.43056ZM6.36608 8.81583L12.3661 12.5721L11.5926 14.2409L5.59255 10.4846L6.36608 8.81583Z" fill="#535559"/>
</svg>
