<svg width="35" height="39" viewBox="0 0 35 39" fill="none" xmlns="http://www.w3.org/2000/svg">
<path d="M23.5319 4.49218C23.5319 4.49218 23.0909 4.61605 22.3663 4.83281C22.2403 4.43025 22.0513 3.96576 21.7993 3.4703C20.9802 1.922 19.7517 1.08592 18.3026 1.08592C18.2081 1.08592 18.1136 1.08592 17.9876 1.11689C17.9561 1.05495 17.8931 1.02399 17.8616 0.962056C17.2315 0.280803 16.4125 -0.0288576 15.4359 0.00210842C13.5458 0.0640405 11.6557 1.39558 10.1436 3.77997C9.07254 5.45213 8.25349 7.55782 8.03298 9.19902C5.85935 9.84931 4.34726 10.3138 4.31576 10.3448C3.21319 10.6854 3.18169 10.7164 3.05568 11.7382C2.86667 12.5124 0 34.3434 0 34.3434L23.8154 38.4V4.43025C23.6894 4.46122 23.5949 4.46122 23.5319 4.49218ZM18.0191 6.16435C16.759 6.53594 15.3729 6.96947 14.0183 7.37203C14.3964 5.91662 15.1524 4.46122 16.0345 3.50127C16.381 3.16064 16.8535 2.75809 17.389 2.51036C17.9246 3.62514 18.0506 5.14247 18.0191 6.16435ZM15.4674 1.24075C15.9084 1.24075 16.2865 1.33365 16.6015 1.51944C16.0975 1.76717 15.5934 2.16973 15.1209 2.63422C13.9238 3.90383 13.0103 5.88566 12.6322 7.77458C11.4982 8.11521 10.3641 8.45584 9.32455 8.7655C9.98609 5.82372 12.5377 1.33365 15.4674 1.24075ZM11.7817 18.2721C11.9077 20.2539 17.2315 20.6874 17.5465 25.3633C17.7671 29.0483 15.5619 31.5565 12.3802 31.7423C8.53701 31.99 6.42638 29.7605 6.42638 29.7605L7.24543 26.3542C7.24543 26.3542 9.35605 27.9335 11.0572 27.8096C12.1597 27.7477 12.5692 26.8497 12.5377 26.2303C12.3802 23.6292 8.03298 23.784 7.74946 19.5107C7.49744 15.9496 9.89159 12.3266 15.1839 11.986C17.2315 11.8621 18.2711 12.3576 18.2711 12.3576L17.074 16.8167C17.074 16.8167 15.7194 16.1973 14.1128 16.3212C11.7817 16.476 11.7502 17.9314 11.7817 18.2721ZM19.2791 5.79276C19.2791 4.86378 19.1531 3.53224 18.7121 2.41746C20.1612 2.69615 20.8542 4.27542 21.1693 5.23537C20.6022 5.3902 19.9722 5.576 19.2791 5.79276Z" fill="white"/>
<path d="M24.603 38.277L34.4946 35.8617C34.4946 35.8617 30.2419 7.58968 30.2104 7.40388C30.1789 7.21809 30.0213 7.09422 29.8638 7.09422C29.7063 7.09422 26.9342 7.03229 26.9342 7.03229C26.9342 7.03229 25.2331 5.42206 24.603 4.80273V38.277Z" fill="white"/>
</svg>
