<svg width="43" height="43" viewBox="0 0 43 43" fill="none" xmlns="http://www.w3.org/2000/svg">
<path d="M21.4961 0C23.5947 0 25.2477 1.58506 26.3029 3.72382L29.8271 10.8303C29.9339 11.0503 30.1873 11.36 30.5681 11.6433C30.9485 11.9263 31.3211 12.0824 31.5661 12.1236L37.9453 13.1923C40.2497 13.5795 42.1811 14.709 42.8081 16.6758C43.4345 18.641 42.5167 20.6832 40.8595 22.3432L40.8579 22.345L35.9021 27.3418C35.7057 27.5398 35.4857 27.9128 35.3477 28.3988C35.2107 28.8816 35.1985 29.3214 35.2607 29.6054L35.2615 29.6094L36.6793 35.7908C37.2675 38.3634 37.0725 40.9146 35.2581 42.2484C33.4373 43.5866 30.9493 42.9934 28.6889 41.6472L22.7091 38.078C22.4579 37.928 22.0267 37.8064 21.5061 37.8064C20.9893 37.8064 20.5491 37.9264 20.2815 38.082L20.2777 38.0842L14.3097 41.6464C12.052 42.9974 9.56698 43.58 7.74612 42.2404C5.93288 40.9064 5.72818 38.36 6.31812 35.7894L7.7357 29.6094L7.73656 29.6054C7.79872 29.3214 7.78656 28.8816 7.6495 28.3988C7.5115 27.9128 7.29148 27.5398 7.09506 27.3418L2.1356 22.3412C0.489201 20.6812 -0.425679 18.6408 0.195801 16.6785C0.819081 14.7105 2.74676 13.5796 5.05256 13.1921L11.4265 12.1244L11.4286 12.124C11.6622 12.0835 12.0293 11.9291 12.4089 11.6454C12.7891 11.3611 13.0431 11.0507 13.1501 10.8303L13.1555 10.8193L16.6751 3.72194L16.6765 3.71914C17.7419 1.58216 19.3999 0 21.4961 0Z" fill="#7F7F7F"/>
</svg>
