<svg width="18" height="18" viewBox="0 0 18 18" fill="none" xmlns="http://www.w3.org/2000/svg">
<path fill-rule="evenodd" clip-rule="evenodd" d="M0.0986759 0.490275C0.25254 0.189351 0.562023 0 0.9 0H5.4C5.689 0 5.96041 0.13878 6.12961 0.373059L10.4173 6.30989L16.4636 0.263601C16.8151 -0.0878669 17.3849 -0.0878669 17.7364 0.263601C18.0878 0.615078 18.0878 1.18492 17.7364 1.5364L11.4848 7.78797L17.8296 16.573C18.0275 16.847 18.0552 17.2088 17.9014 17.5098C17.7475 17.8106 17.438 18 17.1 18H12.6C12.311 18 12.0396 17.8612 11.8704 17.6269L7.58268 11.6901L1.5364 17.7364C1.18493 18.0878 0.615078 18.0878 0.26361 17.7364C-0.0878669 17.3849 -0.0878669 16.8151 0.26361 16.4636L6.51518 10.212L0.170388 1.42694C-0.027486 1.15295 -0.0551881 0.79119 0.0986759 0.490275Z" fill="#7F7F7F"/>
</svg>
