<svg width="40" height="30" viewBox="0 0 40 30" fill="none" xmlns="http://www.w3.org/2000/svg">
<path d="M31.2546 30H22.6727V21.0615H25.5088C26.228 21.0615 26.653 20.219 26.228 19.6125L20.7111 11.7439C20.3596 11.2384 19.6322 11.2384 19.2808 11.7439L13.7638 19.6125C13.3388 20.219 13.7556 21.0615 14.483 21.0615H17.3192V30H7.7074C3.41643 29.7557 0 25.6192 0 21.1373C0 18.0455 1.62648 15.3496 4.0376 13.8922C3.81692 13.2772 3.70249 12.6201 3.70249 11.9292C3.70249 8.77001 6.17899 6.21735 9.24397 6.21735C9.90601 6.21735 10.5435 6.3353 11.1402 6.56276C12.9138 2.68745 16.7389 0 21.1851 0C26.9391 0.0084246 31.6796 4.54928 32.219 10.337C36.6408 11.1205 40 15.3412 40 20.1179C40 25.2233 36.1422 29.6462 31.2546 30Z" fill="#CECECE"/>
</svg>
