<svg width="52" height="52" viewBox="0 0 52 52" fill="none" xmlns="http://www.w3.org/2000/svg">
<rect width="52" height="52" rx="8" fill="#4FCA5D"/>
<path d="M42.75 26.25C42.75 35.3627 35.3627 42.75 26.25 42.75C22.7742 42.75 19.5495 41.6753 16.8899 39.84L11.25 41.25L12.7279 35.7078C10.8513 33.0297 9.75 29.7684 9.75 26.25C9.75 17.1373 17.1373 9.75 26.25 9.75C35.3627 9.75 42.75 17.1373 42.75 26.25Z" fill="url(#paint0_linear_1351_5774)"/>
<path fill-rule="evenodd" clip-rule="evenodd" d="M26.25 45.5C36.8815 45.5 45.5 36.8815 45.5 26.25C45.5 15.6185 36.8815 7 26.25 7C15.6185 7 7 15.6185 7 26.25C7 29.7025 7.90887 32.9426 9.5004 35.7443L7 45.5L17.0579 43.1677C19.7894 44.655 22.921 45.5 26.25 45.5ZM26.25 42.5385C35.2459 42.5385 42.5385 35.2459 42.5385 26.25C42.5385 17.2541 35.2459 9.96154 26.25 9.96154C17.2541 9.96154 9.96154 17.2541 9.96154 26.25C9.96154 29.7233 11.0487 32.9428 12.9013 35.5866L11.4423 41.0577L17.0099 39.6658C19.6354 41.4775 22.8188 42.5385 26.25 42.5385Z" fill="white"/>
<path d="M21.4375 17.3124C20.9798 16.3931 20.2777 16.4745 19.5684 16.4745C18.3008 16.4745 16.3242 17.9929 16.3242 20.8187C16.3242 23.1347 17.3447 25.6698 20.7836 29.4622C24.1023 33.1221 28.4629 35.0154 32.083 34.951C35.7031 34.8865 36.448 31.7713 36.448 30.7193C36.448 30.253 36.1586 30.0203 35.9592 29.9571C34.7256 29.365 32.4503 28.2619 31.9326 28.0546C31.4149 27.8473 31.1446 28.1277 30.9766 28.2802C30.5071 28.7276 29.5765 30.0461 29.2578 30.3427C28.9392 30.6393 28.4641 30.4892 28.2664 30.3771C27.539 30.0851 25.5665 29.2078 23.9943 27.6837C22.0498 25.7988 21.9357 25.1503 21.5694 24.573C21.2763 24.1112 21.4914 23.8278 21.5987 23.704C22.0176 23.2206 22.5961 22.4743 22.8555 22.1034C23.1149 21.7325 22.909 21.1695 22.7854 20.8188C22.2539 19.3105 21.8037 18.0478 21.4375 17.3124Z" fill="white"/>
<defs>
<linearGradient id="paint0_linear_1351_5774" x1="40.6875" y1="13.875" x2="9.75" y2="42.75" gradientUnits="userSpaceOnUse">
<stop stop-color="#5BD066"/>
<stop offset="1" stop-color="#27B43E"/>
</linearGradient>
</defs>
</svg>
