<svg width="39" height="39" viewBox="0 0 39 39" fill="none" xmlns="http://www.w3.org/2000/svg">
<path d="M35.75 19.25C35.75 28.3627 28.3627 35.75 19.25 35.75C15.7742 35.75 12.5495 34.6753 9.8899 32.84L4.25 34.25L5.72792 28.7078C3.85127 26.0297 2.75 22.7684 2.75 19.25C2.75 10.1373 10.1373 2.75 19.25 2.75C28.3627 2.75 35.75 10.1373 35.75 19.25Z" fill="url(#paint0_linear_1689_998)"/>
<path fill-rule="evenodd" clip-rule="evenodd" d="M19.25 38.5C29.8815 38.5 38.5 29.8815 38.5 19.25C38.5 8.61852 29.8815 0 19.25 0C8.61852 0 0 8.61852 0 19.25C0 22.7025 0.908871 25.9426 2.5004 28.7443L0 38.5L10.0579 36.1677C12.7894 37.655 15.921 38.5 19.25 38.5ZM19.25 35.5385C28.2459 35.5385 35.5385 28.2459 35.5385 19.25C35.5385 10.2541 28.2459 2.96154 19.25 2.96154C10.2541 2.96154 2.96154 10.2541 2.96154 19.25C2.96154 22.7233 4.04869 25.9428 5.90128 28.5866L4.44231 34.0577L10.0099 32.6658C12.6354 34.4775 15.8188 35.5385 19.25 35.5385Z" fill="white"/>
<path d="M14.4375 10.3124C13.9798 9.39311 13.2777 9.4745 12.5684 9.4745C11.3008 9.4745 9.32422 10.9929 9.32422 13.8187C9.32422 16.1347 10.3447 18.6698 13.7836 22.4622C17.1023 26.1221 21.4629 28.0154 25.083 27.951C28.7031 27.8865 29.448 24.7713 29.448 23.7193C29.448 23.253 29.1586 23.0203 28.9592 22.9571C27.7256 22.365 25.4503 21.2619 24.9326 21.0546C24.4149 20.8473 24.1446 21.1277 23.9766 21.2802C23.5071 21.7276 22.5765 23.0461 22.2578 23.3427C21.9392 23.6393 21.4641 23.4892 21.2664 23.3771C20.539 23.0851 18.5665 22.2078 16.9943 20.6837C15.0498 18.7988 14.9357 18.1503 14.5694 17.573C14.2763 17.1112 14.4914 16.8278 14.5987 16.704C15.0176 16.2206 15.5961 15.4743 15.8555 15.1034C16.1149 14.7325 15.909 14.1695 15.7854 13.8188C15.2539 12.3105 14.8037 11.0478 14.4375 10.3124Z" fill="white"/>
<defs>
<linearGradient id="paint0_linear_1689_998" x1="33.6875" y1="6.875" x2="2.75" y2="35.75" gradientUnits="userSpaceOnUse">
<stop stop-color="#5BD066"/>
<stop offset="1" stop-color="#27B43E"/>
</linearGradient>
</defs>
</svg>
