<svg width="32" height="32" viewBox="0 0 32 32" fill="none" xmlns="http://www.w3.org/2000/svg">
<path fill-rule="evenodd" clip-rule="evenodd" d="M16 0C7.16348 0 3.11408e-05 7.16344 3.11408e-05 16C3.11408e-05 18.2041 0.446349 20.3069 1.25459 22.2205C1.46663 22.7225 1.60956 23.0619 1.70504 23.3225C1.80241 23.5885 1.81608 23.6846 1.81781 23.7093C1.82747 23.8491 1.79211 24.0392 1.55077 24.9413L0.0379549 30.5951C-0.0650851 30.9803 0.0450841 31.3911 0.326982 31.673C0.608879 31.9549 1.01971 32.065 1.40483 31.962L7.05881 30.4493C7.96081 30.2079 8.15085 30.1726 8.29062 30.1823C8.31542 30.1839 8.4116 30.1976 8.67749 30.2949C8.93818 30.3905 9.27741 30.5334 9.77944 30.7455C11.6932 31.5536 13.7959 32 16 32C24.8366 32 32 24.8365 32 16C32 7.16344 24.8366 0 16 0ZM11.4946 7.4419L11.3567 7.44173C10.6427 7.44053 9.98414 7.43941 9.33643 7.73527C8.86588 7.95022 8.46549 8.31539 8.17393 8.68012C7.88238 9.04484 7.61436 9.51584 7.50835 10.0222C7.36302 10.7163 7.48287 11.2444 7.61107 11.8093L7.62877 11.8875C8.2755 14.7516 9.78742 17.5598 12.1135 19.886C14.4394 22.212 17.2479 23.7239 20.1119 24.3706L20.1901 24.3883C20.7551 24.5165 21.2831 24.6364 21.9772 24.491C22.4835 24.3851 22.9546 24.117 23.3192 23.8254C23.684 23.5339 24.0491 23.1335 24.2642 22.663C24.5599 22.0153 24.5589 21.3567 24.5577 20.6427L24.5575 20.5049C24.5575 20.1768 24.5474 19.6245 24.3346 19.114C24.0805 18.5041 23.5569 18.0014 22.7361 17.8728L22.7276 17.8715C21.7106 17.7121 20.9369 17.5908 20.3901 17.5113C20.1164 17.4716 19.8893 17.4406 19.7116 17.4205C19.5654 17.4038 19.3645 17.383 19.1963 17.3928C18.4676 17.4355 17.8881 17.7311 17.4393 18.0386C17.1536 18.2345 16.8432 18.4966 16.5991 18.7027C16.5032 18.7837 16.4175 18.8561 16.3477 18.9123L16.2325 19.005C15.7931 19.3588 15.5733 19.5358 15.3024 19.5303C15.0315 19.5246 14.8327 19.3506 14.4351 19.0027C14.1823 18.7813 13.9343 18.5494 13.6921 18.3073C13.4498 18.065 13.2181 17.8172 12.9967 17.5643C12.6487 17.1667 12.4747 16.9679 12.4692 16.697C12.4636 16.4261 12.6405 16.2063 12.9943 15.7669L13.087 15.6517C13.1434 15.5818 13.2157 15.4962 13.2967 15.4004C13.5028 15.1563 13.7649 14.8458 13.9608 14.5602C14.2683 14.1113 14.5639 13.5317 14.6066 12.8031C14.6164 12.635 14.5956 12.434 14.5789 12.2879C14.5587 12.1101 14.5279 11.883 14.4881 11.6092C14.4086 11.0623 14.2873 10.2891 14.1279 9.27175L14.1266 9.26328C13.998 8.44253 13.4954 7.91892 12.8854 7.66477C12.3749 7.45202 11.8225 7.4419 11.4946 7.4419Z" fill="#1D1D1F"/>
</svg>
