<svg width="24" height="18" viewBox="0 0 24 18" fill="none" xmlns="http://www.w3.org/2000/svg">
<path fill-rule="evenodd" clip-rule="evenodd" d="M21.3777 0.53697C22.4099 0.832727 23.2222 1.70424 23.4989 2.81091C24 4.81576 24 9 24 9C24 9 24 13.1842 23.4989 15.1891C23.3588 15.7378 23.089 16.2366 22.7165 16.6357C22.344 17.0348 21.8819 17.3201 21.3765 17.463C19.5053 18 11.9994 18 11.9994 18C11.9994 18 4.49465 18 2.62234 17.463C2.11699 17.32 1.65495 17.0347 1.28248 16.6356C0.910015 16.2365 0.640189 15.7377 0.500023 15.1891C6.62305e-08 13.1842 0 9 0 9C0 9 6.62305e-08 4.81576 0.500023 2.81091C0.640087 2.26224 0.909879 1.76337 1.28236 1.36427C1.65485 0.965179 2.11694 0.679881 2.62234 0.53697C4.49465 -1.8062e-07 12.0006 0 12.0006 0C12.0006 0 19.5053 -1.8062e-07 21.3765 0.53697H21.3777ZM15.8174 9L9.546 12.8V5.20121L15.8196 9H15.8174Z" fill="#CECECE"/>
</svg>
